<mxfile host="app.diagrams.net" modified="2021-08-01T03:18:26.319Z" agent="5.0 (Windows NT 10.0; Win64; x64) AppleWebKit/537.36 (KHTML, like Gecko) Chrome/92.0.4515.115 Safari/537.36" etag="nqsYJdP7yGP4odwsTMXG" version="14.9.3" type="github">
  <diagram id="R2lEEEUBdFMjLlhIrx00" name="Page-1">
    <mxGraphModel dx="1278" dy="578" grid="1" gridSize="10" guides="1" tooltips="1" connect="1" arrows="1" fold="1" page="1" pageScale="1" pageWidth="850" pageHeight="1100" math="0" shadow="0" extFonts="Permanent Marker^https://fonts.googleapis.com/css?family=Permanent+Marker">
      <root>
        <mxCell id="0" />
        <mxCell id="1" parent="0" />
        <mxCell id="Fh6CEi7tdX2gL-BeZ5lB-1" value="Libro" style="shape=table;startSize=30;container=1;collapsible=1;childLayout=tableLayout;fixedRows=1;rowLines=0;fontStyle=1;align=center;resizeLast=1;" vertex="1" parent="1">
          <mxGeometry x="20" y="340" width="180" height="160" as="geometry" />
        </mxCell>
        <mxCell id="Fh6CEi7tdX2gL-BeZ5lB-2" value="" style="shape=partialRectangle;collapsible=0;dropTarget=0;pointerEvents=0;fillColor=none;top=0;left=0;bottom=1;right=0;points=[[0,0.5],[1,0.5]];portConstraint=eastwest;" vertex="1" parent="Fh6CEi7tdX2gL-BeZ5lB-1">
          <mxGeometry y="30" width="180" height="30" as="geometry" />
        </mxCell>
        <mxCell id="Fh6CEi7tdX2gL-BeZ5lB-3" value="PK" style="shape=partialRectangle;connectable=0;fillColor=none;top=0;left=0;bottom=0;right=0;fontStyle=1;overflow=hidden;" vertex="1" parent="Fh6CEi7tdX2gL-BeZ5lB-2">
          <mxGeometry width="30" height="30" as="geometry" />
        </mxCell>
        <mxCell id="Fh6CEi7tdX2gL-BeZ5lB-4" value="isbn VARCHAR(255)" style="shape=partialRectangle;connectable=0;fillColor=none;top=0;left=0;bottom=0;right=0;align=left;spacingLeft=6;fontStyle=0;overflow=hidden;" vertex="1" parent="Fh6CEi7tdX2gL-BeZ5lB-2">
          <mxGeometry x="30" width="150" height="30" as="geometry" />
        </mxCell>
        <mxCell id="Fh6CEi7tdX2gL-BeZ5lB-5" value="" style="shape=partialRectangle;collapsible=0;dropTarget=0;pointerEvents=0;fillColor=none;top=0;left=0;bottom=0;right=0;points=[[0,0.5],[1,0.5]];portConstraint=eastwest;" vertex="1" parent="Fh6CEi7tdX2gL-BeZ5lB-1">
          <mxGeometry y="60" width="180" height="30" as="geometry" />
        </mxCell>
        <mxCell id="Fh6CEi7tdX2gL-BeZ5lB-6" value="" style="shape=partialRectangle;connectable=0;fillColor=none;top=0;left=0;bottom=0;right=0;editable=1;overflow=hidden;" vertex="1" parent="Fh6CEi7tdX2gL-BeZ5lB-5">
          <mxGeometry width="30" height="30" as="geometry" />
        </mxCell>
        <mxCell id="Fh6CEi7tdX2gL-BeZ5lB-7" value="titulo VARCHAR(255)" style="shape=partialRectangle;connectable=0;fillColor=none;top=0;left=0;bottom=0;right=0;align=left;spacingLeft=6;overflow=hidden;" vertex="1" parent="Fh6CEi7tdX2gL-BeZ5lB-5">
          <mxGeometry x="30" width="150" height="30" as="geometry" />
        </mxCell>
        <mxCell id="Fh6CEi7tdX2gL-BeZ5lB-8" value="" style="shape=partialRectangle;collapsible=0;dropTarget=0;pointerEvents=0;fillColor=none;top=0;left=0;bottom=0;right=0;points=[[0,0.5],[1,0.5]];portConstraint=eastwest;" vertex="1" parent="Fh6CEi7tdX2gL-BeZ5lB-1">
          <mxGeometry y="90" width="180" height="30" as="geometry" />
        </mxCell>
        <mxCell id="Fh6CEi7tdX2gL-BeZ5lB-9" value="" style="shape=partialRectangle;connectable=0;fillColor=none;top=0;left=0;bottom=0;right=0;editable=1;overflow=hidden;" vertex="1" parent="Fh6CEi7tdX2gL-BeZ5lB-8">
          <mxGeometry width="30" height="30" as="geometry" />
        </mxCell>
        <mxCell id="Fh6CEi7tdX2gL-BeZ5lB-10" value="numero_paginas INT" style="shape=partialRectangle;connectable=0;fillColor=none;top=0;left=0;bottom=0;right=0;align=left;spacingLeft=6;overflow=hidden;" vertex="1" parent="Fh6CEi7tdX2gL-BeZ5lB-8">
          <mxGeometry x="30" width="150" height="30" as="geometry" />
        </mxCell>
        <mxCell id="Fh6CEi7tdX2gL-BeZ5lB-11" value="" style="shape=partialRectangle;collapsible=0;dropTarget=0;pointerEvents=0;fillColor=none;top=0;left=0;bottom=0;right=0;points=[[0,0.5],[1,0.5]];portConstraint=eastwest;" vertex="1" parent="Fh6CEi7tdX2gL-BeZ5lB-1">
          <mxGeometry y="120" width="180" height="30" as="geometry" />
        </mxCell>
        <mxCell id="Fh6CEi7tdX2gL-BeZ5lB-12" value="" style="shape=partialRectangle;connectable=0;fillColor=none;top=0;left=0;bottom=0;right=0;editable=1;overflow=hidden;" vertex="1" parent="Fh6CEi7tdX2gL-BeZ5lB-11">
          <mxGeometry width="30" height="30" as="geometry" />
        </mxCell>
        <mxCell id="Fh6CEi7tdX2gL-BeZ5lB-13" value="" style="shape=partialRectangle;connectable=0;fillColor=none;top=0;left=0;bottom=0;right=0;align=left;spacingLeft=6;overflow=hidden;" vertex="1" parent="Fh6CEi7tdX2gL-BeZ5lB-11">
          <mxGeometry x="30" width="150" height="30" as="geometry" />
        </mxCell>
        <mxCell id="Fh6CEi7tdX2gL-BeZ5lB-14" value="Autor/Libro" style="shape=table;startSize=30;container=1;collapsible=1;childLayout=tableLayout;fixedRows=1;rowLines=0;fontStyle=1;align=center;resizeLast=1;" vertex="1" parent="1">
          <mxGeometry x="350" y="230" width="190" height="160" as="geometry" />
        </mxCell>
        <mxCell id="Fh6CEi7tdX2gL-BeZ5lB-15" value="" style="shape=partialRectangle;collapsible=0;dropTarget=0;pointerEvents=0;fillColor=none;top=0;left=0;bottom=1;right=0;points=[[0,0.5],[1,0.5]];portConstraint=eastwest;" vertex="1" parent="Fh6CEi7tdX2gL-BeZ5lB-14">
          <mxGeometry y="30" width="190" height="30" as="geometry" />
        </mxCell>
        <mxCell id="Fh6CEi7tdX2gL-BeZ5lB-16" value="PK" style="shape=partialRectangle;connectable=0;fillColor=none;top=0;left=0;bottom=0;right=0;fontStyle=1;overflow=hidden;" vertex="1" parent="Fh6CEi7tdX2gL-BeZ5lB-15">
          <mxGeometry width="30" height="30" as="geometry" />
        </mxCell>
        <mxCell id="Fh6CEi7tdX2gL-BeZ5lB-17" value="id_libroautor INT" style="shape=partialRectangle;connectable=0;fillColor=none;top=0;left=0;bottom=0;right=0;align=left;spacingLeft=6;fontStyle=0;overflow=hidden;" vertex="1" parent="Fh6CEi7tdX2gL-BeZ5lB-15">
          <mxGeometry x="30" width="160" height="30" as="geometry" />
        </mxCell>
        <mxCell id="Fh6CEi7tdX2gL-BeZ5lB-18" value="" style="shape=partialRectangle;collapsible=0;dropTarget=0;pointerEvents=0;fillColor=none;top=0;left=0;bottom=0;right=0;points=[[0,0.5],[1,0.5]];portConstraint=eastwest;" vertex="1" parent="Fh6CEi7tdX2gL-BeZ5lB-14">
          <mxGeometry y="60" width="190" height="30" as="geometry" />
        </mxCell>
        <mxCell id="Fh6CEi7tdX2gL-BeZ5lB-19" value="FK" style="shape=partialRectangle;connectable=0;fillColor=none;top=0;left=0;bottom=0;right=0;editable=1;overflow=hidden;" vertex="1" parent="Fh6CEi7tdX2gL-BeZ5lB-18">
          <mxGeometry width="30" height="30" as="geometry" />
        </mxCell>
        <mxCell id="Fh6CEi7tdX2gL-BeZ5lB-20" value="isbn_libro VARCHAR(255)" style="shape=partialRectangle;connectable=0;fillColor=none;top=0;left=0;bottom=0;right=0;align=left;spacingLeft=6;overflow=hidden;" vertex="1" parent="Fh6CEi7tdX2gL-BeZ5lB-18">
          <mxGeometry x="30" width="160" height="30" as="geometry" />
        </mxCell>
        <mxCell id="Fh6CEi7tdX2gL-BeZ5lB-21" value="" style="shape=partialRectangle;collapsible=0;dropTarget=0;pointerEvents=0;fillColor=none;top=0;left=0;bottom=0;right=0;points=[[0,0.5],[1,0.5]];portConstraint=eastwest;" vertex="1" parent="Fh6CEi7tdX2gL-BeZ5lB-14">
          <mxGeometry y="90" width="190" height="30" as="geometry" />
        </mxCell>
        <mxCell id="Fh6CEi7tdX2gL-BeZ5lB-22" value="FK" style="shape=partialRectangle;connectable=0;fillColor=none;top=0;left=0;bottom=0;right=0;editable=1;overflow=hidden;" vertex="1" parent="Fh6CEi7tdX2gL-BeZ5lB-21">
          <mxGeometry width="30" height="30" as="geometry" />
        </mxCell>
        <mxCell id="Fh6CEi7tdX2gL-BeZ5lB-23" value="codigo_autor_autor INT" style="shape=partialRectangle;connectable=0;fillColor=none;top=0;left=0;bottom=0;right=0;align=left;spacingLeft=6;overflow=hidden;" vertex="1" parent="Fh6CEi7tdX2gL-BeZ5lB-21">
          <mxGeometry x="30" width="160" height="30" as="geometry" />
        </mxCell>
        <mxCell id="Fh6CEi7tdX2gL-BeZ5lB-24" value="" style="shape=partialRectangle;collapsible=0;dropTarget=0;pointerEvents=0;fillColor=none;top=0;left=0;bottom=0;right=0;points=[[0,0.5],[1,0.5]];portConstraint=eastwest;" vertex="1" parent="Fh6CEi7tdX2gL-BeZ5lB-14">
          <mxGeometry y="120" width="190" height="30" as="geometry" />
        </mxCell>
        <mxCell id="Fh6CEi7tdX2gL-BeZ5lB-25" value="" style="shape=partialRectangle;connectable=0;fillColor=none;top=0;left=0;bottom=0;right=0;editable=1;overflow=hidden;" vertex="1" parent="Fh6CEi7tdX2gL-BeZ5lB-24">
          <mxGeometry width="30" height="30" as="geometry" />
        </mxCell>
        <mxCell id="Fh6CEi7tdX2gL-BeZ5lB-26" value="tipo_autor VARCHAR(255)" style="shape=partialRectangle;connectable=0;fillColor=none;top=0;left=0;bottom=0;right=0;align=left;spacingLeft=6;overflow=hidden;" vertex="1" parent="Fh6CEi7tdX2gL-BeZ5lB-24">
          <mxGeometry x="30" width="160" height="30" as="geometry" />
        </mxCell>
        <mxCell id="Fh6CEi7tdX2gL-BeZ5lB-27" value="Autor" style="shape=table;startSize=30;container=1;collapsible=1;childLayout=tableLayout;fixedRows=1;rowLines=0;fontStyle=1;align=center;resizeLast=1;" vertex="1" parent="1">
          <mxGeometry x="650" y="230" width="270" height="190" as="geometry" />
        </mxCell>
        <mxCell id="Fh6CEi7tdX2gL-BeZ5lB-28" value="" style="shape=partialRectangle;collapsible=0;dropTarget=0;pointerEvents=0;fillColor=none;top=0;left=0;bottom=1;right=0;points=[[0,0.5],[1,0.5]];portConstraint=eastwest;" vertex="1" parent="Fh6CEi7tdX2gL-BeZ5lB-27">
          <mxGeometry y="30" width="270" height="20" as="geometry" />
        </mxCell>
        <mxCell id="Fh6CEi7tdX2gL-BeZ5lB-29" value="PK" style="shape=partialRectangle;connectable=0;fillColor=none;top=0;left=0;bottom=0;right=0;fontStyle=1;overflow=hidden;" vertex="1" parent="Fh6CEi7tdX2gL-BeZ5lB-28">
          <mxGeometry width="30" height="20" as="geometry" />
        </mxCell>
        <mxCell id="Fh6CEi7tdX2gL-BeZ5lB-30" value="codigo_autor INT" style="shape=partialRectangle;connectable=0;fillColor=none;top=0;left=0;bottom=0;right=0;align=left;spacingLeft=6;fontStyle=0;overflow=hidden;" vertex="1" parent="Fh6CEi7tdX2gL-BeZ5lB-28">
          <mxGeometry x="30" width="240" height="20" as="geometry" />
        </mxCell>
        <mxCell id="Fh6CEi7tdX2gL-BeZ5lB-31" value="" style="shape=partialRectangle;collapsible=0;dropTarget=0;pointerEvents=0;fillColor=none;top=0;left=0;bottom=0;right=0;points=[[0,0.5],[1,0.5]];portConstraint=eastwest;" vertex="1" parent="Fh6CEi7tdX2gL-BeZ5lB-27">
          <mxGeometry y="50" width="270" height="30" as="geometry" />
        </mxCell>
        <mxCell id="Fh6CEi7tdX2gL-BeZ5lB-32" value="" style="shape=partialRectangle;connectable=0;fillColor=none;top=0;left=0;bottom=0;right=0;editable=1;overflow=hidden;" vertex="1" parent="Fh6CEi7tdX2gL-BeZ5lB-31">
          <mxGeometry width="30" height="30" as="geometry" />
        </mxCell>
        <mxCell id="Fh6CEi7tdX2gL-BeZ5lB-33" value="nombre VARCHAR (255)" style="shape=partialRectangle;connectable=0;fillColor=none;top=0;left=0;bottom=0;right=0;align=left;spacingLeft=6;overflow=hidden;" vertex="1" parent="Fh6CEi7tdX2gL-BeZ5lB-31">
          <mxGeometry x="30" width="240" height="30" as="geometry" />
        </mxCell>
        <mxCell id="Fh6CEi7tdX2gL-BeZ5lB-34" value="" style="shape=partialRectangle;collapsible=0;dropTarget=0;pointerEvents=0;fillColor=none;top=0;left=0;bottom=0;right=0;points=[[0,0.5],[1,0.5]];portConstraint=eastwest;" vertex="1" parent="Fh6CEi7tdX2gL-BeZ5lB-27">
          <mxGeometry y="80" width="270" height="30" as="geometry" />
        </mxCell>
        <mxCell id="Fh6CEi7tdX2gL-BeZ5lB-35" value="" style="shape=partialRectangle;connectable=0;fillColor=none;top=0;left=0;bottom=0;right=0;editable=1;overflow=hidden;" vertex="1" parent="Fh6CEi7tdX2gL-BeZ5lB-34">
          <mxGeometry width="30" height="30" as="geometry" />
        </mxCell>
        <mxCell id="Fh6CEi7tdX2gL-BeZ5lB-36" value="apellido VARCHAR(255)" style="shape=partialRectangle;connectable=0;fillColor=none;top=0;left=0;bottom=0;right=0;align=left;spacingLeft=6;overflow=hidden;" vertex="1" parent="Fh6CEi7tdX2gL-BeZ5lB-34">
          <mxGeometry x="30" width="240" height="30" as="geometry" />
        </mxCell>
        <mxCell id="Fh6CEi7tdX2gL-BeZ5lB-37" value="" style="shape=partialRectangle;collapsible=0;dropTarget=0;pointerEvents=0;fillColor=none;top=0;left=0;bottom=0;right=0;points=[[0,0.5],[1,0.5]];portConstraint=eastwest;" vertex="1" parent="Fh6CEi7tdX2gL-BeZ5lB-27">
          <mxGeometry y="110" width="270" height="30" as="geometry" />
        </mxCell>
        <mxCell id="Fh6CEi7tdX2gL-BeZ5lB-38" value="" style="shape=partialRectangle;connectable=0;fillColor=none;top=0;left=0;bottom=0;right=0;editable=1;overflow=hidden;" vertex="1" parent="Fh6CEi7tdX2gL-BeZ5lB-37">
          <mxGeometry width="30" height="30" as="geometry" />
        </mxCell>
        <mxCell id="Fh6CEi7tdX2gL-BeZ5lB-39" value="fecha_nacimiento DATE" style="shape=partialRectangle;connectable=0;fillColor=none;top=0;left=0;bottom=0;right=0;align=left;spacingLeft=6;overflow=hidden;" vertex="1" parent="Fh6CEi7tdX2gL-BeZ5lB-37">
          <mxGeometry x="30" width="240" height="30" as="geometry" />
        </mxCell>
        <mxCell id="Fh6CEi7tdX2gL-BeZ5lB-40" value="fecha_muerte DATE" style="shape=partialRectangle;connectable=0;fillColor=none;top=0;left=0;bottom=0;right=0;align=left;spacingLeft=6;overflow=hidden;" vertex="1" parent="1">
          <mxGeometry x="680" y="370" width="240" height="30" as="geometry" />
        </mxCell>
        <mxCell id="Fh6CEi7tdX2gL-BeZ5lB-41" value="Prestamo" style="shape=table;startSize=30;container=1;collapsible=1;childLayout=tableLayout;fixedRows=1;rowLines=0;fontStyle=1;align=center;resizeLast=1;" vertex="1" parent="1">
          <mxGeometry x="260" y="510" width="270" height="210" as="geometry" />
        </mxCell>
        <mxCell id="Fh6CEi7tdX2gL-BeZ5lB-42" value="" style="shape=partialRectangle;collapsible=0;dropTarget=0;pointerEvents=0;fillColor=none;top=0;left=0;bottom=1;right=0;points=[[0,0.5],[1,0.5]];portConstraint=eastwest;" vertex="1" parent="Fh6CEi7tdX2gL-BeZ5lB-41">
          <mxGeometry y="30" width="270" height="20" as="geometry" />
        </mxCell>
        <mxCell id="Fh6CEi7tdX2gL-BeZ5lB-43" value="PK" style="shape=partialRectangle;connectable=0;fillColor=none;top=0;left=0;bottom=0;right=0;fontStyle=1;overflow=hidden;" vertex="1" parent="Fh6CEi7tdX2gL-BeZ5lB-42">
          <mxGeometry width="30" height="20" as="geometry" />
        </mxCell>
        <mxCell id="Fh6CEi7tdX2gL-BeZ5lB-44" value="id_prestamo INT" style="shape=partialRectangle;connectable=0;fillColor=none;top=0;left=0;bottom=0;right=0;align=left;spacingLeft=6;fontStyle=0;overflow=hidden;" vertex="1" parent="Fh6CEi7tdX2gL-BeZ5lB-42">
          <mxGeometry x="30" width="240" height="20" as="geometry" />
        </mxCell>
        <mxCell id="Fh6CEi7tdX2gL-BeZ5lB-45" value="" style="shape=partialRectangle;collapsible=0;dropTarget=0;pointerEvents=0;fillColor=none;top=0;left=0;bottom=0;right=0;points=[[0,0.5],[1,0.5]];portConstraint=eastwest;" vertex="1" parent="Fh6CEi7tdX2gL-BeZ5lB-41">
          <mxGeometry y="50" width="270" height="30" as="geometry" />
        </mxCell>
        <mxCell id="Fh6CEi7tdX2gL-BeZ5lB-46" value="FK" style="shape=partialRectangle;connectable=0;fillColor=none;top=0;left=0;bottom=0;right=0;editable=1;overflow=hidden;" vertex="1" parent="Fh6CEi7tdX2gL-BeZ5lB-45">
          <mxGeometry width="30" height="30" as="geometry" />
        </mxCell>
        <mxCell id="Fh6CEi7tdX2gL-BeZ5lB-47" value="isbn_libro INT" style="shape=partialRectangle;connectable=0;fillColor=none;top=0;left=0;bottom=0;right=0;align=left;spacingLeft=6;overflow=hidden;" vertex="1" parent="Fh6CEi7tdX2gL-BeZ5lB-45">
          <mxGeometry x="30" width="240" height="30" as="geometry" />
        </mxCell>
        <mxCell id="Fh6CEi7tdX2gL-BeZ5lB-48" value="" style="shape=partialRectangle;collapsible=0;dropTarget=0;pointerEvents=0;fillColor=none;top=0;left=0;bottom=0;right=0;points=[[0,0.5],[1,0.5]];portConstraint=eastwest;" vertex="1" parent="Fh6CEi7tdX2gL-BeZ5lB-41">
          <mxGeometry y="80" width="270" height="30" as="geometry" />
        </mxCell>
        <mxCell id="Fh6CEi7tdX2gL-BeZ5lB-49" value="FK" style="shape=partialRectangle;connectable=0;fillColor=none;top=0;left=0;bottom=0;right=0;editable=1;overflow=hidden;" vertex="1" parent="Fh6CEi7tdX2gL-BeZ5lB-48">
          <mxGeometry width="30" height="30" as="geometry" />
        </mxCell>
        <mxCell id="Fh6CEi7tdX2gL-BeZ5lB-50" value="rut_socio VARCHAR(255)" style="shape=partialRectangle;connectable=0;fillColor=none;top=0;left=0;bottom=0;right=0;align=left;spacingLeft=6;overflow=hidden;" vertex="1" parent="Fh6CEi7tdX2gL-BeZ5lB-48">
          <mxGeometry x="30" width="240" height="30" as="geometry" />
        </mxCell>
        <mxCell id="Fh6CEi7tdX2gL-BeZ5lB-51" value="" style="shape=partialRectangle;collapsible=0;dropTarget=0;pointerEvents=0;fillColor=none;top=0;left=0;bottom=0;right=0;points=[[0,0.5],[1,0.5]];portConstraint=eastwest;" vertex="1" parent="Fh6CEi7tdX2gL-BeZ5lB-41">
          <mxGeometry y="110" width="270" height="30" as="geometry" />
        </mxCell>
        <mxCell id="Fh6CEi7tdX2gL-BeZ5lB-52" value="" style="shape=partialRectangle;connectable=0;fillColor=none;top=0;left=0;bottom=0;right=0;editable=1;overflow=hidden;" vertex="1" parent="Fh6CEi7tdX2gL-BeZ5lB-51">
          <mxGeometry width="30" height="30" as="geometry" />
        </mxCell>
        <mxCell id="Fh6CEi7tdX2gL-BeZ5lB-53" value="fecha_inicio DATE" style="shape=partialRectangle;connectable=0;fillColor=none;top=0;left=0;bottom=0;right=0;align=left;spacingLeft=6;overflow=hidden;" vertex="1" parent="Fh6CEi7tdX2gL-BeZ5lB-51">
          <mxGeometry x="30" width="240" height="30" as="geometry" />
        </mxCell>
        <mxCell id="Fh6CEi7tdX2gL-BeZ5lB-54" value="fecha_devolucion DATE" style="shape=partialRectangle;connectable=0;fillColor=none;top=0;left=0;bottom=0;right=0;align=left;spacingLeft=6;overflow=hidden;" vertex="1" parent="1">
          <mxGeometry x="290" y="650" width="240" height="30" as="geometry" />
        </mxCell>
        <mxCell id="Fh6CEi7tdX2gL-BeZ5lB-55" value="fecha_devolucion_real DATE" style="shape=partialRectangle;connectable=0;fillColor=none;top=0;left=0;bottom=0;right=0;align=left;spacingLeft=6;overflow=hidden;" vertex="1" parent="1">
          <mxGeometry x="290" y="680" width="240" height="30" as="geometry" />
        </mxCell>
        <mxCell id="Fh6CEi7tdX2gL-BeZ5lB-56" value="Socio" style="shape=table;startSize=30;container=1;collapsible=1;childLayout=tableLayout;fixedRows=1;rowLines=0;fontStyle=1;align=center;resizeLast=1;" vertex="1" parent="1">
          <mxGeometry x="680" y="510" width="220" height="190" as="geometry" />
        </mxCell>
        <mxCell id="Fh6CEi7tdX2gL-BeZ5lB-57" value="" style="shape=partialRectangle;collapsible=0;dropTarget=0;pointerEvents=0;fillColor=none;top=0;left=0;bottom=1;right=0;points=[[0,0.5],[1,0.5]];portConstraint=eastwest;" vertex="1" parent="Fh6CEi7tdX2gL-BeZ5lB-56">
          <mxGeometry y="30" width="220" height="30" as="geometry" />
        </mxCell>
        <mxCell id="Fh6CEi7tdX2gL-BeZ5lB-58" value="PK" style="shape=partialRectangle;connectable=0;fillColor=none;top=0;left=0;bottom=0;right=0;fontStyle=1;overflow=hidden;" vertex="1" parent="Fh6CEi7tdX2gL-BeZ5lB-57">
          <mxGeometry width="30" height="30" as="geometry" />
        </mxCell>
        <mxCell id="Fh6CEi7tdX2gL-BeZ5lB-59" value="rut VARCHAR(255)" style="shape=partialRectangle;connectable=0;fillColor=none;top=0;left=0;bottom=0;right=0;align=left;spacingLeft=6;fontStyle=0;overflow=hidden;" vertex="1" parent="Fh6CEi7tdX2gL-BeZ5lB-57">
          <mxGeometry x="30" width="190" height="30" as="geometry" />
        </mxCell>
        <mxCell id="Fh6CEi7tdX2gL-BeZ5lB-60" value="" style="shape=partialRectangle;collapsible=0;dropTarget=0;pointerEvents=0;fillColor=none;top=0;left=0;bottom=0;right=0;points=[[0,0.5],[1,0.5]];portConstraint=eastwest;" vertex="1" parent="Fh6CEi7tdX2gL-BeZ5lB-56">
          <mxGeometry y="60" width="220" height="30" as="geometry" />
        </mxCell>
        <mxCell id="Fh6CEi7tdX2gL-BeZ5lB-61" value="" style="shape=partialRectangle;connectable=0;fillColor=none;top=0;left=0;bottom=0;right=0;editable=1;overflow=hidden;" vertex="1" parent="Fh6CEi7tdX2gL-BeZ5lB-60">
          <mxGeometry width="30" height="30" as="geometry" />
        </mxCell>
        <mxCell id="Fh6CEi7tdX2gL-BeZ5lB-62" value="nombre VARCHAR(255)" style="shape=partialRectangle;connectable=0;fillColor=none;top=0;left=0;bottom=0;right=0;align=left;spacingLeft=6;overflow=hidden;" vertex="1" parent="Fh6CEi7tdX2gL-BeZ5lB-60">
          <mxGeometry x="30" width="190" height="30" as="geometry" />
        </mxCell>
        <mxCell id="Fh6CEi7tdX2gL-BeZ5lB-63" value="" style="shape=partialRectangle;collapsible=0;dropTarget=0;pointerEvents=0;fillColor=none;top=0;left=0;bottom=0;right=0;points=[[0,0.5],[1,0.5]];portConstraint=eastwest;" vertex="1" parent="Fh6CEi7tdX2gL-BeZ5lB-56">
          <mxGeometry y="90" width="220" height="30" as="geometry" />
        </mxCell>
        <mxCell id="Fh6CEi7tdX2gL-BeZ5lB-64" value="" style="shape=partialRectangle;connectable=0;fillColor=none;top=0;left=0;bottom=0;right=0;editable=1;overflow=hidden;" vertex="1" parent="Fh6CEi7tdX2gL-BeZ5lB-63">
          <mxGeometry width="30" height="30" as="geometry" />
        </mxCell>
        <mxCell id="Fh6CEi7tdX2gL-BeZ5lB-65" value="apellido VARCHAR(255)" style="shape=partialRectangle;connectable=0;fillColor=none;top=0;left=0;bottom=0;right=0;align=left;spacingLeft=6;overflow=hidden;" vertex="1" parent="Fh6CEi7tdX2gL-BeZ5lB-63">
          <mxGeometry x="30" width="190" height="30" as="geometry" />
        </mxCell>
        <mxCell id="Fh6CEi7tdX2gL-BeZ5lB-66" value="" style="shape=partialRectangle;collapsible=0;dropTarget=0;pointerEvents=0;fillColor=none;top=0;left=0;bottom=0;right=0;points=[[0,0.5],[1,0.5]];portConstraint=eastwest;" vertex="1" parent="Fh6CEi7tdX2gL-BeZ5lB-56">
          <mxGeometry y="120" width="220" height="30" as="geometry" />
        </mxCell>
        <mxCell id="Fh6CEi7tdX2gL-BeZ5lB-67" value="" style="shape=partialRectangle;connectable=0;fillColor=none;top=0;left=0;bottom=0;right=0;editable=1;overflow=hidden;" vertex="1" parent="Fh6CEi7tdX2gL-BeZ5lB-66">
          <mxGeometry width="30" height="30" as="geometry" />
        </mxCell>
        <mxCell id="Fh6CEi7tdX2gL-BeZ5lB-68" value="" style="shape=partialRectangle;connectable=0;fillColor=none;top=0;left=0;bottom=0;right=0;align=left;spacingLeft=6;overflow=hidden;" vertex="1" parent="Fh6CEi7tdX2gL-BeZ5lB-66">
          <mxGeometry x="30" width="190" height="30" as="geometry" />
        </mxCell>
        <mxCell id="Fh6CEi7tdX2gL-BeZ5lB-69" value="direccion VARCHAR(255)" style="shape=partialRectangle;connectable=0;fillColor=none;top=0;left=0;bottom=0;right=0;align=left;spacingLeft=6;overflow=hidden;" vertex="1" parent="1">
          <mxGeometry x="710" y="630" width="190" height="30" as="geometry" />
        </mxCell>
        <mxCell id="Fh6CEi7tdX2gL-BeZ5lB-70" value="telefono VARCHAR(255)" style="shape=partialRectangle;connectable=0;fillColor=none;top=0;left=0;bottom=0;right=0;align=left;spacingLeft=6;overflow=hidden;" vertex="1" parent="1">
          <mxGeometry x="710" y="660" width="190" height="30" as="geometry" />
        </mxCell>
        <mxCell id="Fh6CEi7tdX2gL-BeZ5lB-71" value="" style="edgeStyle=entityRelationEdgeStyle;fontSize=12;html=1;endArrow=ERoneToMany;startArrow=ERmandOne;exitX=1.001;exitY=0.012;exitDx=0;exitDy=0;exitPerimeter=0;" edge="1" parent="1" source="Fh6CEi7tdX2gL-BeZ5lB-5" target="Fh6CEi7tdX2gL-BeZ5lB-14">
          <mxGeometry width="100" height="100" relative="1" as="geometry">
            <mxPoint x="220" y="310" as="sourcePoint" />
            <mxPoint x="360" y="290" as="targetPoint" />
          </mxGeometry>
        </mxCell>
        <mxCell id="Fh6CEi7tdX2gL-BeZ5lB-72" value="" style="edgeStyle=entityRelationEdgeStyle;fontSize=12;html=1;endArrow=ERoneToMany;startArrow=ERmandOne;" edge="1" parent="1" source="Fh6CEi7tdX2gL-BeZ5lB-27" target="Fh6CEi7tdX2gL-BeZ5lB-14">
          <mxGeometry width="100" height="100" relative="1" as="geometry">
            <mxPoint x="610" y="170" as="sourcePoint" />
            <mxPoint x="470" y="150" as="targetPoint" />
          </mxGeometry>
        </mxCell>
        <mxCell id="Fh6CEi7tdX2gL-BeZ5lB-73" value="" style="edgeStyle=entityRelationEdgeStyle;fontSize=12;html=1;endArrow=ERzeroToMany;startArrow=ERmandOne;exitX=1.001;exitY=0.984;exitDx=0;exitDy=0;exitPerimeter=0;" edge="1" parent="1" source="Fh6CEi7tdX2gL-BeZ5lB-5" target="Fh6CEi7tdX2gL-BeZ5lB-41">
          <mxGeometry width="100" height="100" relative="1" as="geometry">
            <mxPoint x="190" y="-40" as="sourcePoint" />
            <mxPoint x="210" y="270" as="targetPoint" />
          </mxGeometry>
        </mxCell>
        <mxCell id="Fh6CEi7tdX2gL-BeZ5lB-74" value="" style="edgeStyle=entityRelationEdgeStyle;fontSize=12;html=1;endArrow=ERzeroToMany;startArrow=ERmandOne;" edge="1" parent="1" source="Fh6CEi7tdX2gL-BeZ5lB-56" target="Fh6CEi7tdX2gL-BeZ5lB-48">
          <mxGeometry width="100" height="100" relative="1" as="geometry">
            <mxPoint x="720" y="542" as="sourcePoint" />
            <mxPoint x="250" y="630" as="targetPoint" />
          </mxGeometry>
        </mxCell>
      </root>
    </mxGraphModel>
  </diagram>
</mxfile>
